<?xml version="1.0" encoding="UTF-8" standalone="no"?>
<!DOCTYPE svg PUBLIC "-//W3C//DTD SVG 1.1//EN" "http://www.w3.org/Graphics/SVG/1.1/DTD/svg11.dtd">
<svg width="100%" height="100%" viewBox="0 0 800 450" version="1.1" xmlns="http://www.w3.org/2000/svg" xmlns:xlink="http://www.w3.org/1999/xlink" xml:space="preserve" xmlns:serif="http://www.serif.com/" style="fill-rule:evenodd;clip-rule:evenodd;stroke-linejoin:round;stroke-miterlimit:2;">
    <g id="Layer1">
    </g>
    <rect x="0" y="0" width="800" height="450" style="fill:rgb(116,19,220);"/>
    <g transform="matrix(0.181709,0,0,0.181709,400,225)">
        <g transform="matrix(1,0,0,1,-1275,-1162.5)">
            <clipPath id="_clip1">
                <rect x="0" y="0" width="2550" height="2325"/>
            </clipPath>
            <g clip-path="url(#_clip1)">
                <g transform="matrix(4.16667,0,0,4.16667,0,0)">
                    <path d="M161.156,251.273C178.228,277.436 186.834,307.381 189.514,327.694L220.688,327.694C218.077,302.875 208.064,266.509 187.094,234.355C162.153,196.103 129.667,175.87 93.174,175.853L92.952,175.853C65.12,175.853 39.076,188.358 21.475,210.178C2.965,233.115 -4.035,262.778 2.259,291.569L32.501,284.949C28.282,265.672 33.17,244.985 45.563,229.619C57.439,214.913 74.252,206.816 92.962,206.816L93.119,206.816C125.411,206.836 147.945,231.002 161.156,251.273Z" style="fill:white;fill-rule:nonzero;"/>
                    <path d="M386.173,468.176C374.051,451.401 365.22,431.324 361.322,412.006L329.864,412.006C332.281,427.088 338.688,451.995 355.573,478.26C344.994,495.978 326.002,513.459 305.919,523.916C305.91,523.912 305.899,523.906 305.886,523.899C305.875,523.906 305.865,523.912 305.855,523.916C285.772,513.459 266.781,495.978 256.202,478.26C273.086,451.995 279.494,427.088 281.911,412.006L250.453,412.006C246.555,431.324 237.723,451.401 225.601,468.176L220.337,475.491L224.092,483.696C237.235,512.37 267.586,541.128 299.618,555.247L305.841,557.999L305.886,557.979L305.93,557.999L312.157,555.247C344.184,541.128 374.54,512.37 387.679,483.696L391.438,475.491L386.173,468.176Z" style="fill:white;fill-rule:nonzero;"/>
                    <path d="M450.619,251.273C433.546,277.436 424.94,307.381 422.26,327.694L391.086,327.694C393.698,302.875 403.71,266.509 424.681,234.355C449.622,196.103 482.107,175.87 518.599,175.853L518.822,175.853C546.655,175.853 572.698,188.358 590.299,210.178C608.805,233.115 615.807,262.778 609.515,291.569L579.273,284.949C583.492,265.672 578.604,244.985 566.211,229.619C554.335,214.913 537.523,206.816 518.812,206.816L518.655,206.816C486.364,206.836 463.83,231.002 450.619,251.273Z" style="fill:white;fill-rule:nonzero;"/>
                    <path d="M251.781,327.694L282.952,327.694C279.063,291.778 264.975,260.48 252.488,232.76C240.017,205.102 228.247,178.97 228.417,152.926C228.677,122.981 245.752,92.455 274.104,71.229C279.07,67.487 293.193,56.652 305.886,44.997C318.582,56.652 332.701,67.487 337.671,71.229C366.022,92.455 383.098,122.981 383.357,152.926C383.528,178.97 371.757,205.102 359.287,232.76C346.799,260.48 332.71,291.778 328.823,327.694L359.994,327.694C363.848,298.034 375.877,271.346 387.529,245.476C401.41,214.654 414.528,185.534 414.327,152.694C413.968,113.108 392.26,73.42 356.249,46.465C352.002,43.253 329.908,26.416 317.209,12.741L305.886,0.533L294.565,12.741C281.866,26.416 259.772,43.253 255.526,46.465C219.514,73.42 197.806,113.108 197.448,152.694C197.246,185.534 210.362,214.654 224.246,245.476C235.897,271.346 247.927,298.034 251.781,327.694Z" style="fill:white;fill-rule:nonzero;"/>
                    <rect x="129.033" y="355.007" width="353.709" height="29.679" style="fill:white;fill-rule:nonzero;"/>
                </g>
            </g>
        </g>
    </g>
</svg>
